<svg id="visual" viewBox="0 0 960 540" width="960" height="540" xmlns="http://www.w3.org/2000/svg" xmlns:xlink="http://www.w3.org/1999/xlink" version="1.1"><rect x="0" y="0" width="960" height="540" fill="#002233"></rect><path d="M0 305L20 327.5C40 350 80 395 120 397.8C160 400.7 200 361.3 240 347C280 332.7 320 343.3 360 362C400 380.7 440 407.3 480 407.5C520 407.7 560 381.3 600 370.7C640 360 680 365 720 379.8C760 394.7 800 419.3 840 407.7C880 396 920 348 940 324L960 300L960 541L940 541C920 541 880 541 840 541C800 541 760 541 720 541C680 541 640 541 600 541C560 541 520 541 480 541C440 541 400 541 360 541C320 541 280 541 240 541C200 541 160 541 120 541C80 541 40 541 20 541L0 541Z" fill="#0066FF" stroke-linecap="round" stroke-linejoin="miter"></path></svg>